<svg viewBox="0 0 880 560" role="img" aria-label="Tasks solved per model across the four harness arms" xmlns="http://www.w3.org/2000/svg" style="width:100%;height:auto;background:#141414;border:1px solid #303030;border-radius:12px"><text x="24" y="34" fill="#f0f0f0" font-size="15" font-weight="600" font-family="-apple-system,'Segoe UI',sans-serif">Tasks solved (of 36), arm by arm</text><text x="150" y="52" fill="#a0a0a0" font-size="12.5" text-anchor="middle" font-family="-apple-system,'Segoe UI',sans-serif">cold</text><line x1="150" y1="64" x2="150" y2="522" stroke="#2a2a2a" stroke-width="1"/><text x="372" y="52" fill="#a0a0a0" font-size="12.5" text-anchor="middle" font-family="-apple-system,'Segoe UI',sans-serif">+card</text><line x1="372" y1="64" x2="372" y2="522" stroke="#2a2a2a" stroke-width="1"/><text x="594" y="52" fill="#a0a0a0" font-size="12.5" text-anchor="middle" font-family="-apple-system,'Segoe UI',sans-serif">+feedback</text><line x1="594" y1="64" x2="594" y2="522" stroke="#2a2a2a" stroke-width="1"/><text x="816" y="52" fill="#a0a0a0" font-size="12.5" text-anchor="middle" font-family="-apple-system,'Segoe UI',sans-serif">+self-tests</text><line x1="816" y1="64" x2="816" y2="522" stroke="#2a2a2a" stroke-width="1"/><polyline points="150,143.0 372,143.0 594,95.6 816,111.4" fill="none" stroke="#4a4a4a" stroke-width="1.5"><title>Gemini 3.1 Pro: 32 → 32 → 35 → 34</title></polyline><polyline points="150,174.6 372,237.7 594,143.0 816,143.0" fill="none" stroke="#4a4a4a" stroke-width="1.5"><title>Kimi K2.6: 30 → 26 → 32 → 32</title></polyline><polyline points="150,190.3 372,190.3 594,111.4 816,95.6" fill="none" stroke="#4a4a4a" stroke-width="1.5"><title>Opus 4.8: 29 → 29 → 34 → 35</title></polyline><polyline points="150,206.1 372,253.5 594,158.8 816,95.6" fill="none" stroke="#4a4a4a" stroke-width="1.5"><title>Grok 4.3: 28 → 25 → 31 → 35</title></polyline><polyline points="150,237.7 372,269.3 594,174.6 816,127.2" fill="none" stroke="#4a4a4a" stroke-width="1.5"><title>MiniMax M3: 26 → 24 → 30 → 33</title></polyline><polyline points="150,253.5 372,221.9 594,190.3 816,111.4" fill="none" stroke="#4a4a4a" stroke-width="1.5"><title>Sonnet 4.6: 25 → 27 → 29 → 34</title></polyline><polyline points="150,253.5 372,221.9 594,190.3 816,174.6" fill="none" stroke="#4a4a4a" stroke-width="1.5"><title>GLM-5: 25 → 27 → 29 → 30</title></polyline><polyline points="150,395.7 372,411.4 594,364.1 816,285.1" fill="none" stroke="#4a4a4a" stroke-width="1.5"><title>Qwen3 Coder: 16 → 15 → 18 → 23</title></polyline><polyline points="150,506.2 372,458.8 594,411.4 816,379.9" fill="none" stroke="#4a4a4a" stroke-width="1.5"><title>Mistral L3: 9 → 12 → 15 → 17</title></polyline><polyline points="150,243.8 372,237.7 594,191.6 816,158.8" fill="none" stroke="#a0a0a0" stroke-width="2" stroke-dasharray="6 5"><title>field mean: 25.6 → 26.0 → 28.9 → 31.0</title></polyline><text x="826" y="162.8" fill="#a0a0a0" font-size="11.5" font-family="-apple-system,'Segoe UI',sans-serif">mean 31.0</text><polyline points="150,95.6 372,95.6 594,95.6 816,79.8" fill="none" stroke="#5B9FEF" stroke-width="2.5"/><circle cx="150" cy="95.6" r="4" fill="#5B9FEF" stroke="#141414" stroke-width="2"><title>GPT-5.5 — cold: 35/36</title></circle><circle cx="372" cy="95.6" r="4" fill="#5B9FEF" stroke="#141414" stroke-width="2"><title>GPT-5.5 — +card: 35/36</title></circle><circle cx="594" cy="95.6" r="4" fill="#5B9FEF" stroke="#141414" stroke-width="2"><title>GPT-5.5 — +feedback: 35/36</title></circle><circle cx="816" cy="79.8" r="4" fill="#5B9FEF" stroke="#141414" stroke-width="2"><title>GPT-5.5 — +self-tests: 36/36</title></circle><polyline points="150,111.4 372,95.6 594,79.8 816,79.8" fill="none" stroke="#7BC96F" stroke-width="2.5"/><circle cx="150" cy="111.4" r="4" fill="#7BC96F" stroke="#141414" stroke-width="2"><title>Fable 5 — cold: 34/36</title></circle><circle cx="372" cy="95.6" r="4" fill="#7BC96F" stroke="#141414" stroke-width="2"><title>Fable 5 — +card: 35/36</title></circle><circle cx="594" cy="79.8" r="4" fill="#7BC96F" stroke="#141414" stroke-width="2"><title>Fable 5 — +feedback: 36/36</title></circle><circle cx="816" cy="79.8" r="4" fill="#7BC96F" stroke="#141414" stroke-width="2"><title>Fable 5 — +self-tests: 36/36</title></circle><polyline points="150,300.9 372,237.7 594,221.9 816,111.4" fill="none" stroke="#F59E42" stroke-width="2.5"/><circle cx="150" cy="300.9" r="4" fill="#F59E42" stroke="#141414" stroke-width="2"><title>DeepSeek V4 — cold: 22/36</title></circle><circle cx="372" cy="237.7" r="4" fill="#F59E42" stroke="#141414" stroke-width="2"><title>DeepSeek V4 — +card: 26/36</title></circle><circle cx="594" cy="221.9" r="4" fill="#F59E42" stroke="#141414" stroke-width="2"><title>DeepSeek V4 — +feedback: 27/36</title></circle><circle cx="816" cy="111.4" r="4" fill="#F59E42" stroke="#141414" stroke-width="2"><title>DeepSeek V4 — +self-tests: 34/36</title></circle><polyline points="150,300.9 372,253.5 594,253.5 816,269.3" fill="none" stroke="#A855F7" stroke-width="2.5"/><circle cx="150" cy="300.9" r="4" fill="#A855F7" stroke="#141414" stroke-width="2"><title>GPT-5.1 — cold: 22/36</title></circle><circle cx="372" cy="253.5" r="4" fill="#A855F7" stroke="#141414" stroke-width="2"><title>GPT-5.1 — +card: 25/36</title></circle><circle cx="594" cy="253.5" r="4" fill="#A855F7" stroke="#141414" stroke-width="2"><title>GPT-5.1 — +feedback: 25/36</title></circle><circle cx="816" cy="269.3" r="4" fill="#A855F7" stroke="#141414" stroke-width="2"><title>GPT-5.1 — +self-tests: 24/36</title></circle><text x="138" y="99.6" fill="#5B9FEF" font-size="12" font-weight="600" text-anchor="end" font-family="-apple-system,'Segoe UI',sans-serif">GPT-5.5 35</text><text x="138" y="115.4" fill="#7BC96F" font-size="12" font-weight="600" text-anchor="end" font-family="-apple-system,'Segoe UI',sans-serif">Fable 5 34</text><text x="138" y="304.9" fill="#F59E42" font-size="12" font-weight="600" text-anchor="end" font-family="-apple-system,'Segoe UI',sans-serif">DeepSeek V4 22</text><text x="138" y="319.9" fill="#A855F7" font-size="12" font-weight="600" text-anchor="end" font-family="-apple-system,'Segoe UI',sans-serif">GPT-5.1 22</text><text x="828" y="83.8" fill="#7BC96F" font-size="12" font-weight="600" font-family="-apple-system,'Segoe UI',sans-serif">36</text><text x="828" y="98.8" fill="#5B9FEF" font-size="12" font-weight="600" font-family="-apple-system,'Segoe UI',sans-serif">36</text><text x="828" y="115.4" fill="#F59E42" font-size="12" font-weight="600" font-family="-apple-system,'Segoe UI',sans-serif">34</text><text x="828" y="273.3" fill="#A855F7" font-size="12" font-weight="600" font-family="-apple-system,'Segoe UI',sans-serif">24</text><text x="24" y="546" fill="#707070" font-size="11" font-family="-apple-system,'Segoe UI',sans-serif">Gray lines: the other nine models. Dashed: field mean (13 models).</text></svg>