<svg viewBox="0 0 970 520" role="img" aria-label="The five harness arms as pipeline diagrams" xmlns="http://www.w3.org/2000/svg" style="width:100%;height:auto;background:#141414;border:1px solid #303030;border-radius:12px"><text x="24" y="36" fill="#f0f0f0" font-size="15" font-weight="600" font-family="-apple-system,'Segoe UI',sans-serif">The five arms — what the model gets, and what loops back</text><text x="24" y="95" fill="#f0f0f0" font-size="12.5" font-weight="600" font-family="-apple-system,'Segoe UI',sans-serif">cold</text><rect x="150" y="76" width="90" height="30" rx="8" fill="#1e1e1e" stroke="#303030"/><text x="195.0" y="95" fill="#a0a0a0" font-size="11.5" text-anchor="middle"  font-family="-apple-system,'Segoe UI',sans-serif">task prompt</text><line x1="240" y1="91" x2="266" y2="91" stroke="#707070" stroke-width="1.5"/><path d="M 265 87 L 272 91 L 265 95" fill="none" stroke="#707070" stroke-width="1.5"/><rect x="272" y="76" width="78" height="30" rx="8" fill="#241a33" stroke="#4a2c75"/><text x="311.0" y="95" fill="#A855F7" font-size="11.5" text-anchor="middle" font-weight="600" font-family="-apple-system,'Segoe UI',sans-serif">model</text><line x1="350" y1="91" x2="376" y2="91" stroke="#707070" stroke-width="1.5"/><path d="M 375 87 L 382 91 L 375 95" fill="none" stroke="#707070" stroke-width="1.5"/><rect x="382" y="76" width="96" height="30" rx="8" fill="#1e1e1e" stroke="#303030"/><text x="430.0" y="95" fill="#a0a0a0" font-size="11.5" text-anchor="middle"  font-family="-apple-system,'Segoe UI',sans-serif">function</text><line x1="478" y1="91" x2="504" y2="91" stroke="#707070" stroke-width="1.5"/><path d="M 503 87 L 510 91 L 503 95" fill="none" stroke="#707070" stroke-width="1.5"/><rect x="510" y="76" width="96" height="30" rx="8" fill="#1e1e1e" stroke="#303030"/><text x="558.0" y="95" fill="#a0a0a0" font-size="11.5" text-anchor="middle"  font-family="-apple-system,'Segoe UI',sans-serif">submission</text><text x="24" y="175" fill="#f0f0f0" font-size="12.5" font-weight="600" font-family="-apple-system,'Segoe UI',sans-serif">+card</text><rect x="150" y="156" width="90" height="30" rx="8" fill="#1e1e1e" stroke="#303030"/><text x="195.0" y="175" fill="#a0a0a0" font-size="11.5" text-anchor="middle"  font-family="-apple-system,'Segoe UI',sans-serif">task prompt</text><line x1="240" y1="171" x2="266" y2="171" stroke="#707070" stroke-width="1.5"/><path d="M 265 167 L 272 171 L 265 175" fill="none" stroke="#707070" stroke-width="1.5"/><rect x="272" y="156" width="86" height="30" rx="8" fill="#1a2433" stroke="#2c4a75"/><text x="315.0" y="175" fill="#5B9FEF" font-size="11.5" text-anchor="middle"  font-family="-apple-system,'Segoe UI',sans-serif">rules card</text><line x1="358" y1="171" x2="384" y2="171" stroke="#707070" stroke-width="1.5"/><path d="M 383 167 L 390 171 L 383 175" fill="none" stroke="#707070" stroke-width="1.5"/><rect x="390" y="156" width="78" height="30" rx="8" fill="#241a33" stroke="#4a2c75"/><text x="429.0" y="175" fill="#A855F7" font-size="11.5" text-anchor="middle" font-weight="600" font-family="-apple-system,'Segoe UI',sans-serif">model</text><line x1="468" y1="171" x2="494" y2="171" stroke="#707070" stroke-width="1.5"/><path d="M 493 167 L 500 171 L 493 175" fill="none" stroke="#707070" stroke-width="1.5"/><rect x="500" y="156" width="96" height="30" rx="8" fill="#1e1e1e" stroke="#303030"/><text x="548.0" y="175" fill="#a0a0a0" font-size="11.5" text-anchor="middle"  font-family="-apple-system,'Segoe UI',sans-serif">function</text><line x1="596" y1="171" x2="622" y2="171" stroke="#707070" stroke-width="1.5"/><path d="M 621 167 L 628 171 L 621 175" fill="none" stroke="#707070" stroke-width="1.5"/><rect x="628" y="156" width="96" height="30" rx="8" fill="#1e1e1e" stroke="#303030"/><text x="676.0" y="175" fill="#a0a0a0" font-size="11.5" text-anchor="middle"  font-family="-apple-system,'Segoe UI',sans-serif">submission</text><text x="24" y="255" fill="#f0f0f0" font-size="12.5" font-weight="600" font-family="-apple-system,'Segoe UI',sans-serif">+feedback</text><rect x="150" y="236" width="90" height="30" rx="8" fill="#1e1e1e" stroke="#303030"/><text x="195.0" y="255" fill="#a0a0a0" font-size="11.5" text-anchor="middle"  font-family="-apple-system,'Segoe UI',sans-serif">task prompt</text><line x1="240" y1="251" x2="266" y2="251" stroke="#707070" stroke-width="1.5"/><path d="M 265 247 L 272 251 L 265 255" fill="none" stroke="#707070" stroke-width="1.5"/><rect x="272" y="236" width="86" height="30" rx="8" fill="#1a2433" stroke="#2c4a75"/><text x="315.0" y="255" fill="#5B9FEF" font-size="11.5" text-anchor="middle"  font-family="-apple-system,'Segoe UI',sans-serif">rules card</text><line x1="358" y1="251" x2="384" y2="251" stroke="#707070" stroke-width="1.5"/><path d="M 383 247 L 390 251 L 383 255" fill="none" stroke="#707070" stroke-width="1.5"/><rect x="390" y="236" width="78" height="30" rx="8" fill="#241a33" stroke="#4a2c75"/><text x="429.0" y="255" fill="#A855F7" font-size="11.5" text-anchor="middle" font-weight="600" font-family="-apple-system,'Segoe UI',sans-serif">model</text><line x1="468" y1="251" x2="494" y2="251" stroke="#707070" stroke-width="1.5"/><path d="M 493 247 L 500 251 L 493 255" fill="none" stroke="#707070" stroke-width="1.5"/><rect x="500" y="236" width="96" height="30" rx="8" fill="#1e1e1e" stroke="#303030"/><text x="548.0" y="255" fill="#a0a0a0" font-size="11.5" text-anchor="middle"  font-family="-apple-system,'Segoe UI',sans-serif">function</text><line x1="596" y1="251" x2="622" y2="251" stroke="#707070" stroke-width="1.5"/><path d="M 621 247 L 628 251 L 621 255" fill="none" stroke="#707070" stroke-width="1.5"/><rect x="628" y="236" width="176" height="30" rx="8" fill="#16281c" stroke="#2c5a3a"/><text x="716.0" y="255" fill="#7BC96F" font-size="11.5" text-anchor="middle"  font-family="-apple-system,'Segoe UI',sans-serif">run public example</text><path d="M 790 236 L 816 236 L 816 280 L 450 280 L 450 258" fill="none" stroke="#5B9FEF" stroke-width="1.5" stroke-dasharray="4 4"/><path d="M 446 264 L 450 257 L 454 264" fill="none" stroke="#5B9FEF" stroke-width="1.5"/><text x="620.0" y="296" fill="#5B9FEF" font-size="10.5" text-anchor="middle" font-family="-apple-system,'Segoe UI',sans-serif">errors back, 1 repair</text><line x1="804" y1="251" x2="830" y2="251" stroke="#707070" stroke-width="1.5"/><path d="M 829 247 L 836 251 L 829 255" fill="none" stroke="#707070" stroke-width="1.5"/><rect x="836" y="236" width="96" height="30" rx="8" fill="#1e1e1e" stroke="#303030"/><text x="884.0" y="255" fill="#a0a0a0" font-size="11.5" text-anchor="middle"  font-family="-apple-system,'Segoe UI',sans-serif">submission</text><text x="24" y="361" fill="#f0f0f0" font-size="12.5" font-weight="600" font-family="-apple-system,'Segoe UI',sans-serif">+self-tests</text><rect x="150" y="342" width="90" height="30" rx="8" fill="#1e1e1e" stroke="#303030"/><text x="195.0" y="361" fill="#a0a0a0" font-size="11.5" text-anchor="middle"  font-family="-apple-system,'Segoe UI',sans-serif">task prompt</text><line x1="240" y1="357" x2="266" y2="357" stroke="#707070" stroke-width="1.5"/><path d="M 265 353 L 272 357 L 265 361" fill="none" stroke="#707070" stroke-width="1.5"/><rect x="272" y="342" width="86" height="30" rx="8" fill="#1a2433" stroke="#2c4a75"/><text x="315.0" y="361" fill="#5B9FEF" font-size="11.5" text-anchor="middle"  font-family="-apple-system,'Segoe UI',sans-serif">rules card</text><line x1="358" y1="357" x2="384" y2="357" stroke="#707070" stroke-width="1.5"/><path d="M 383 353 L 390 357 L 383 361" fill="none" stroke="#707070" stroke-width="1.5"/><rect x="390" y="342" width="78" height="30" rx="8" fill="#241a33" stroke="#4a2c75"/><text x="429.0" y="361" fill="#A855F7" font-size="11.5" text-anchor="middle" font-weight="600" font-family="-apple-system,'Segoe UI',sans-serif">model</text><line x1="468" y1="357" x2="494" y2="357" stroke="#707070" stroke-width="1.5"/><path d="M 493 353 L 500 357 L 493 361" fill="none" stroke="#707070" stroke-width="1.5"/><rect x="500" y="342" width="96" height="30" rx="8" fill="#1e1e1e" stroke="#303030"/><text x="548.0" y="361" fill="#a0a0a0" font-size="11.5" text-anchor="middle"  font-family="-apple-system,'Segoe UI',sans-serif">function</text><line x1="596" y1="357" x2="622" y2="357" stroke="#707070" stroke-width="1.5"/><path d="M 621 353 L 628 357 L 621 361" fill="none" stroke="#707070" stroke-width="1.5"/><rect x="628" y="342" width="176" height="30" rx="8" fill="#16281c" stroke="#2c5a3a"/><text x="716.0" y="361" fill="#7BC96F" font-size="11.5" text-anchor="middle"  font-family="-apple-system,'Segoe UI',sans-serif">run public + 6 own tests</text><path d="M 790 342 L 816 342 L 816 386 L 450 386 L 450 364" fill="none" stroke="#5B9FEF" stroke-width="1.5" stroke-dasharray="4 4"/><path d="M 446 370 L 450 363 L 454 370" fill="none" stroke="#5B9FEF" stroke-width="1.5"/><text x="620.0" y="402" fill="#5B9FEF" font-size="10.5" text-anchor="middle" font-family="-apple-system,'Segoe UI',sans-serif">failures back, 2 repairs</text><line x1="804" y1="357" x2="830" y2="357" stroke="#707070" stroke-width="1.5"/><path d="M 829 353 L 836 357 L 829 361" fill="none" stroke="#707070" stroke-width="1.5"/><rect x="836" y="342" width="96" height="30" rx="8" fill="#1e1e1e" stroke="#303030"/><text x="884.0" y="361" fill="#a0a0a0" font-size="11.5" text-anchor="middle"  font-family="-apple-system,'Segoe UI',sans-serif">submission</text><text x="24" y="467" fill="#f0f0f0" font-size="12.5" font-weight="600" font-family="-apple-system,'Segoe UI',sans-serif">Claude Code</text><rect x="150" y="448" width="90" height="30" rx="8" fill="#1e1e1e" stroke="#303030"/><text x="195.0" y="467" fill="#a0a0a0" font-size="11.5" text-anchor="middle"  font-family="-apple-system,'Segoe UI',sans-serif">task prompt</text><line x1="240" y1="463" x2="266" y2="463" stroke="#707070" stroke-width="1.5"/><path d="M 265 459 L 272 463 L 265 467" fill="none" stroke="#707070" stroke-width="1.5"/><rect x="272" y="448" width="86" height="30" rx="8" fill="#1a2433" stroke="#2c4a75"/><text x="315.0" y="467" fill="#5B9FEF" font-size="11.5" text-anchor="middle"  font-family="-apple-system,'Segoe UI',sans-serif">rules card</text><line x1="358" y1="463" x2="384" y2="463" stroke="#707070" stroke-width="1.5"/><path d="M 383 459 L 390 463 L 383 467" fill="none" stroke="#707070" stroke-width="1.5"/><rect x="390" y="448" width="78" height="30" rx="8" fill="#241a33" stroke="#4a2c75"/><text x="429.0" y="467" fill="#A855F7" font-size="11.5" text-anchor="middle" font-weight="600" font-family="-apple-system,'Segoe UI',sans-serif">model</text><line x1="468" y1="463" x2="494" y2="463" stroke="#707070" stroke-width="1.5"/><path d="M 493 459 L 500 463 L 493 467" fill="none" stroke="#707070" stroke-width="1.5"/><rect x="500" y="448" width="250" height="30" rx="8" fill="#16281c" stroke="#2c5a3a"/><text x="625.0" y="467" fill="#7BC96F" font-size="11.5" text-anchor="middle"  font-family="-apple-system,'Segoe UI',sans-serif">agent: writes + runs its own tests</text><path d="M 730 448 L 756 448 L 756 492 L 520 492 L 520 470" fill="none" stroke="#7BC96F" stroke-width="1.5" stroke-dasharray="4 4"/><path d="M 516 476 L 520 469 L 524 476" fill="none" stroke="#7BC96F" stroke-width="1.5"/><text x="625.0" y="508" fill="#7BC96F" font-size="10.5" text-anchor="middle" font-family="-apple-system,'Segoe UI',sans-serif">tools ⟲ real interpreter, ≤25 turns</text><line x1="750" y1="463" x2="776" y2="463" stroke="#707070" stroke-width="1.5"/><path d="M 775 459 L 782 463 L 775 467" fill="none" stroke="#707070" stroke-width="1.5"/><rect x="782" y="448" width="96" height="30" rx="8" fill="#1e1e1e" stroke="#303030"/><text x="830.0" y="467" fill="#a0a0a0" font-size="11.5" text-anchor="middle"  font-family="-apple-system,'Segoe UI',sans-serif">submission</text><text x="24" y="506" fill="#707070" font-size="11" font-family="-apple-system,'Segoe UI',sans-serif">Hidden test cases (181) grade every arm identically — they never appear inside any loop.</text></svg>